# xmcd
#
# Track frame offsets: 
#        150
#        22232
#        36567
#        50466
#        69221
#        81579
#        96197
#        122167
#        138986
#        150211
#
# Disc length: 2162 seconds
#
# Revision: 0
# Processed by: cddbd v1.5.2PL0 Copyright (c) Steve Scherf et al.
# Submitted via: ExactAudioCopy v0.99pb5
#
DISCID=8508700a
DTITLE=Tramp - Put A Record On
DYEAR=1974
DGENRE=Blues
TTITLE0=Too Late For That Now
TTITLE1=Now I Aint A Junkie Anymore
TTITLE2=What You Gonna Do
TTITLE3=Like You Used To Do
TTITLE4=You Gotta Move
TTITLE5=Put A Record On
TTITLE6=Funky Money
TTITLE7=Beggar By Your Side
TTITLE8=Maternity Orders (keep on rolling in)
TTITLE9=It's Over
EXTD=
EXTT0=
EXTT1=
EXTT2=
EXTT3=
EXTT4=
EXTT5=
EXTT6=
EXTT7=
EXTT8=
EXTT9=
PLAYORDER=
